<?xml version="1.0" encoding="UTF-8" standalone="no"?>
<!-- Created with Inkscape (http://www.inkscape.org/) -->

<svg
   version="1.1"
   id="svg1"
   width="226.66667"
   height="266.66666"
   viewBox="0 0 226.66667 266.66666"
   sodipodi:docname="logo.svg"
   xml:space="preserve"
   inkscape:version="1.3.2 (091e20e, 2023-11-25, custom)"
   inkscape:export-filename="logo.png"
   inkscape:export-xdpi="96"
   inkscape:export-ydpi="96"
   xmlns:inkscape="http://www.inkscape.org/namespaces/inkscape"
   xmlns:sodipodi="http://sodipodi.sourceforge.net/DTD/sodipodi-0.dtd"
   xmlns="http://www.w3.org/2000/svg"
   xmlns:svg="http://www.w3.org/2000/svg"><defs
     id="defs1" /><sodipodi:namedview
     id="namedview1"
     pagecolor="#ffffff"
     bordercolor="#000000"
     borderopacity="0.25"
     inkscape:showpageshadow="2"
     inkscape:pageopacity="0.0"
     inkscape:pagecheckerboard="0"
     inkscape:deskcolor="#d1d1d1"
     inkscape:zoom="2.3773644"
     inkscape:cx="104.52752"
     inkscape:cy="139.0195"
     inkscape:window-width="1920"
     inkscape:window-height="991"
     inkscape:window-x="-9"
     inkscape:window-y="-9"
     inkscape:window-maximized="1"
     inkscape:current-layer="g1" /><g
     inkscape:groupmode="layer"
     inkscape:label="Image"
     id="g1"><path
       style="fill:#000000;stroke-width:0.41029"
       d="m 60.239558,257.17193 c -4.399368,-0.79444 -7.27909,-1.66574 -10.790548,-3.26482 -13.153573,-5.98999 -22.712132,-18.67486 -24.720936,-32.8064 -0.65299,-4.59375 -0.426421,-170.081945 0.23401,-170.91547 0.250958,-0.316728 0.583044,-1.10539 0.737977,-1.752586 0.582351,-2.432711 0.61525,-0.699977 0.03843,2.025592 -0.517419,2.445007 -0.601972,14.406787 -0.603041,85.311934 -8.24e-4,50.7782 0.150641,83.49301 0.394027,85.13509 2.454991,16.56368 14.694271,30.09565 31.42737,34.74665 l 4.064695,1.12979 50.852488,0.12542 c 54.3874,0.13408 52.48416,0.19218 59.72056,-1.82232 6.15079,-1.71227 14.12783,-6.719 18.6903,-11.73079 4.64883,-5.10667 8.24019,-11.63543 10.09174,-18.34584 l 0.96226,-3.48745 0.1101,-84.00082 c 0.0962,-73.389188 0.0324,-84.373834 -0.50554,-86.95366 -0.33864,-1.624081 -0.53528,-3.033282 -0.43699,-3.131576 0.0982,-0.09825 0.30547,0.350812 0.46041,0.997994 0.15492,0.647196 0.487,1.435859 0.73796,1.752586 0.65438,0.825883 0.88749,166.294676 0.2408,170.925176 -1.95662,14.01016 -11.62088,26.828 -24.72773,32.79671 -3.6254,1.65097 -6.37053,2.46353 -11.11343,3.28958 -5.2299,0.91088 -100.807508,0.88852 -105.864973,-0.0247 z M 51.584903,234.0898 c -1.944204,-0.91499 -3.664584,-2.65559 -4.312647,-4.36331 -0.684575,-1.80396 -1.033249,-15.58784 -0.448268,-17.72106 0.633716,-2.31097 3.13854,-4.44853 5.942666,-5.07136 1.290217,-0.28658 4.870465,-0.41096 9.28064,-0.32244 8.046286,0.16151 9.635726,0.61664 11.556125,3.30911 0.93208,1.3068 0.957703,1.57873 0.957703,10.16395 0,10.14451 -0.249979,11.11895 -3.418805,13.32674 l -1.777646,1.23854 -8.069296,0.10605 c -7.184105,0.0945 -8.249343,0.0214 -9.710472,-0.66627 z m 18.736588,-1.24914 c 0.79288,-0.54379 1.886528,-1.63742 2.430327,-2.43026 0.95424,-1.39125 0.993078,-1.7363 1.113539,-9.89284 0.121831,-8.24887 0.102166,-8.48464 -0.820579,-9.84273 -1.77863,-2.6178 -3.364288,-3.08584 -10.997484,-3.24617 -9.725498,-0.20428 -12.705782,0.71335 -14.239645,4.38443 -0.676686,1.6195 -0.713198,13.89854 -0.04942,16.60322 0.478769,1.95067 2.765376,4.53145 4.536717,5.12032 0.810624,0.2695 4.357106,0.41564 8.963146,0.36935 7.318629,-0.0735 7.679098,-0.11588 9.063365,-1.06532 z m 16.343174,1.73136 c -0.338489,-0.13698 -1.383995,-0.77319 -2.323347,-1.41399 -2.818336,-1.92258 -3.20399,-3.51774 -3.210276,-13.27849 -0.0051,-7.74673 0.04522,-8.287 0.897594,-9.65743 0.496584,-0.7984 1.696681,-1.90619 2.666883,-2.46174 1.716775,-0.98305 1.989179,-1.01009 10.174937,-1.01009 7.985084,0 8.509464,0.0486 10.356954,0.95836 1.0703,0.5271 2.36271,1.54257 2.87202,2.2566 0.89219,1.2508 0.92602,1.62043 0.92602,10.11945 0,10.11089 -0.24775,11.06691 -3.45551,13.33442 l -1.74126,1.23086 -8.27429,0.0855 c -4.550861,0.047 -8.551236,-0.0266 -8.889725,-0.16341 z m 18.368745,-1.90725 c 1.02037,-0.70767 2.02142,-1.89262 2.55141,-3.02012 0.81273,-1.729 0.86359,-2.40476 0.74612,-9.9132 -0.12172,-7.77982 -0.16017,-8.10315 -1.11484,-9.37553 -1.88539,-2.51285 -3.03194,-2.78506 -11.730208,-2.78506 -4.287527,0 -8.289005,0.13842 -8.892177,0.3076 -1.570321,0.44043 -3.64075,2.30477 -4.292879,3.86553 -0.402824,0.96409 -0.55712,3.38384 -0.550634,8.63524 0.0098,7.90483 0.359898,9.51107 2.501172,11.47402 2.298045,2.10668 2.897263,2.21796 11.270918,2.09301 l 7.831908,-0.11689 z m 14.96328,1.33709 c -3.72244,-1.86921 -4.46891,-4.20739 -4.57413,-14.32746 l -0.0789,-7.59036 1.11354,-1.70593 c 0.61244,-0.93826 1.86799,-2.13835 2.7901,-2.66688 1.61212,-0.92402 2.00777,-0.96095 10.29265,-0.96095 9.49039,0 9.86019,0.0803 12.4203,2.6989 1.66343,1.70139 1.83951,2.95878 1.66531,11.89212 -0.16422,8.42141 -0.64103,10.01173 -3.62111,12.07781 l -1.77541,1.23086 -8.24229,0.11472 c -7.72883,0.10764 -8.35118,0.0601 -9.99004,-0.76286 z m 17.58524,-0.432 c 2.03312,-0.67738 4.30818,-3.02432 4.86722,-5.021 0.31041,-1.10869 0.43277,-4.41255 0.34901,-9.42409 l -0.12896,-7.71692 -1.69756,-1.58253 c -2.31658,-2.1596 -3.95565,-2.50011 -11.73959,-2.43885 -7.58861,0.0597 -9.14509,0.42002 -11.35501,2.62844 l -1.46638,1.4654 -0.12823,7.86842 c -0.1043,6.39963 -0.008,8.18423 0.51794,9.56037 0.74766,1.95772 2.76206,4.01594 4.53377,4.63239 1.69787,0.59074 14.49277,0.61311 16.24779,0.0285 z m 16.86411,0.41208 c -3.99657,-1.97826 -4.69496,-4.29722 -4.51998,-15.0084 0.1459,-8.93172 0.25744,-9.27372 3.65215,-11.19754 1.77178,-1.00409 1.99174,-1.02572 10.42604,-1.02572 7.41919,0 8.78706,0.0985 9.84696,0.70965 1.89635,1.09332 2.90864,2.08239 3.70249,3.61752 0.64951,1.25602 0.70183,2.26225 0.49045,9.43316 -0.26687,9.05328 -0.62654,10.54952 -2.98901,12.43458 -2.14384,1.7106 -3.34003,1.90996 -11.45847,1.9096 -6.70803,-3e-4 -7.55013,-0.0806 -9.15063,-0.87285 z m 18.17429,-0.72287 c 1.98621,-0.91669 3.23621,-2.21557 4.08332,-4.243 0.49502,-1.18476 0.63502,-3.1827 0.63502,-9.06267 0,-7.14681 -0.0486,-7.61408 -0.92315,-8.89926 -1.22749,-1.80354 -2.69201,-2.84205 -4.64751,-3.29559 -2.27582,-0.52782 -14.00285,-0.47864 -15.96819,0.0669 -0.97455,0.27055 -2.34778,1.16321 -3.38489,2.20032 l -1.74509,1.74508 v 8.00453 c 0,8.62281 0.21098,9.75646 2.21902,11.92316 1.90155,2.05181 3.08827,2.30318 10.91025,2.31085 6.12427,0.006 7.4214,-0.10432 8.82122,-0.75039 z M 87.508973,200.7391 c -2.202724,-0.40179 -4.392614,-2.08657 -5.509465,-4.23868 -0.747858,-1.44109 -0.827438,-2.40263 -0.849458,-10.26377 l -0.02429,-8.67374 1.107121,-1.45505 c 0.608916,-0.80026 1.945474,-1.84912 2.970128,-2.33076 1.708026,-0.80287 2.537477,-0.87496 9.970698,-0.8667 6.977523,0.007 8.338823,0.114 9.765823,0.76219 1.83953,0.83558 3.74753,2.8631 4.13059,4.38933 0.13726,0.54691 0.17802,4.54839 0.0905,8.89217 -0.14578,7.24011 -0.23818,8.06056 -1.10968,9.85246 -0.66034,1.35774 -1.47114,2.2553 -2.65498,2.93905 -1.58182,0.91361 -2.22045,0.99665 -8.884394,1.15515 -3.949037,0.0939 -8.000227,0.0212 -9.002643,-0.16165 z m 17.289207,-1.79933 c 1.02749,-0.71399 2.15143,-1.98982 2.68868,-3.05202 0.86162,-1.70352 0.92315,-2.34865 0.92315,-9.67822 0,-7.49466 -0.0427,-7.91636 -0.93528,-9.24089 -0.51441,-0.76334 -1.66835,-1.80307 -2.56431,-2.31052 -1.53604,-0.87 -2.08572,-0.92239 -9.629674,-0.91785 -7.529484,0.004 -8.109377,0.0602 -9.84695,0.94675 -1.175066,0.59948 -2.186159,1.52756 -2.781113,2.55275 -0.898326,1.54795 -0.930351,1.92306 -0.820579,9.61147 0.107512,7.53035 0.169711,8.08987 1.058063,9.51855 1.025315,1.64894 3.115255,3.13053 5.152331,3.65254 0.708977,0.1817 4.371797,0.28847 8.139599,0.23731 l 6.850553,-0.0931 z m 18.58741,2.09196 c -0.22566,-0.0899 -1.11367,-0.28132 -1.97336,-0.42538 -0.95635,-0.16027 -2.18968,-0.82804 -3.1774,-1.72038 -2.44168,-2.20591 -2.84989,-4.10789 -2.84989,-13.27851 v -7.65948 l 1.22278,-1.688 c 2.1381,-2.95156 2.81511,-3.13542 12.11163,-3.2891 8.9077,-0.14724 10.42041,0.0783 12.55113,1.87115 2.20427,1.85477 2.47069,3.06384 2.40512,10.915 -0.0324,3.87387 -0.2443,7.93495 -0.47098,9.02462 -0.47026,2.26054 -2.3207,4.6335 -4.2379,5.43456 -1.1783,0.49233 -14.62561,1.19615 -15.58113,0.81552 z m 14.77042,-1.55617 c 1.75155,-0.63814 3.06833,-1.90823 3.94287,-3.80311 0.65147,-1.41154 0.7587,-2.73756 0.76645,-9.47766 l 0.009,-7.83651 -1.18905,-1.64145 c -1.92302,-2.65464 -3.31226,-2.99487 -12.22927,-2.99487 -8.72982,0 -10.34218,0.4237 -12.2398,3.21629 -0.98743,1.45314 -1.01049,1.66701 -1.00169,9.29022 0.0103,8.89296 0.35368,10.27339 3.07141,12.34632 1.25821,0.95967 2.08251,1.21111 4.66041,1.42155 4.21808,0.34434 12.68699,0.034 14.20966,-0.52078 z m 18.21883,1.29891 c -1.77628,-0.29468 -2.75852,-0.83972 -4.15047,-2.30306 -2.02398,-2.12779 -2.37511,-3.97767 -2.37511,-12.51272 0,-8.26189 0.15287,-9.0464 2.12064,-10.8837 2.06056,-1.92393 3.46233,-2.17421 12.12375,-2.16459 9.25603,0.0101 10.57304,0.33215 12.67721,3.09833 l 1.18324,1.55551 -0.0397,8.2419 c -0.0509,10.57179 -0.38573,11.73462 -4.06324,14.10997 -1.60352,1.03575 -1.80669,1.06041 -8.86027,1.07509 -3.97052,0.009 -7.84776,-0.0893 -8.61607,-0.21673 z m 14.75019,-0.81669 c 1.62068,-0.34972 2.59718,-0.87401 3.72112,-1.99795 2.2439,-2.2439 2.56831,-3.92887 2.41689,-12.55299 -0.14813,-8.43687 -0.41803,-9.2164 -3.74938,-10.82908 -1.60164,-0.77535 -2.49962,-0.8558 -9.552,-0.8558 -7.25752,0 -7.90782,0.0624 -9.61153,0.92315 -1.00504,0.50774 -2.24427,1.55051 -2.75383,2.31727 -0.88168,1.32676 -0.92603,1.77283 -0.91744,9.23152 0.007,6.76619 0.11385,8.06822 0.77592,9.52619 0.92566,2.03837 3.23356,3.89227 5.29331,4.25198 2.73908,0.47838 12.13707,0.46903 14.37694,-0.0144 z M 51.174621,200.2219 c -1.605182,-0.71343 -2.876905,-2.1236 -3.707208,-4.1108 -0.533962,-1.27794 -0.683014,-3.26672 -0.737587,-9.84135 -0.06589,-7.94541 -0.03468,-8.29396 0.875441,-9.75765 0.51911,-0.83485 1.626884,-1.94262 2.461738,-2.46173 1.428664,-0.88835 1.998849,-0.95173 9.698263,-1.07813 5.530325,-0.0907 8.75366,0.0262 9.950094,0.36119 1.935694,0.54196 4.440747,2.93681 4.872857,4.65847 0.139184,0.55457 0.190031,4.66725 0.112988,9.13929 -0.136756,7.93821 -0.165878,8.17486 -1.228148,9.98169 -0.643831,1.09511 -1.755468,2.22582 -2.722745,2.76946 -1.547263,0.86961 -2.081481,0.91788 -9.989754,0.90268 -6.043634,-0.0116 -8.695602,-0.1674 -9.585939,-0.56312 z m 18.622129,-0.96521 c 0.786138,-0.39172 1.995096,-1.42154 2.686568,-2.28852 l 1.257225,-1.57631 v -8.95518 -8.95519 l -1.025724,-1.09912 c -0.564148,-0.6045 -1.731202,-1.46084 -2.593456,-1.90297 -1.432207,-0.73436 -2.28659,-0.79298 -9.883453,-0.67807 l -8.315733,0.12585 -1.648123,1.14314 c -2.580159,1.78961 -2.743775,2.42036 -2.842921,10.96039 -0.0773,6.65783 0.0058,7.79199 0.675385,9.23152 2.109857,4.53502 4.287666,5.24699 14.946804,4.88646 3.93945,-0.13322 5.683822,-0.36398 6.743428,-0.89194 z m 12.765019,0.92896 c -0.294403,-0.35475 -0.334278,-0.61544 -0.09413,-0.61544 0.229146,0 0.522905,0.27695 0.652795,0.61544 0.129893,0.33848 0.17225,0.61542 0.09413,0.61542 -0.07812,0 -0.371874,-0.27694 -0.652795,-0.61542 z M 51.9952,166.66494 c -1.777192,-0.61741 -4.251429,-3.14197 -4.730819,-4.82702 -0.545507,-1.91748 -1.009914,-14.06025 -0.633686,-16.56908 0.416928,-2.78034 2.467517,-4.98153 5.447772,-5.84791 1.780256,-0.51754 3.764482,-0.62037 9.693668,-0.50235 8.394463,0.16707 9.685516,0.51353 11.68385,3.13534 l 1.105137,1.44995 v 9.05728 c 0,7.78053 -0.09913,9.23835 -0.703269,10.34185 -0.954339,1.74315 -2.903107,3.31422 -4.745808,3.82599 -1.967577,0.54644 -15.505363,0.49579 -17.116845,-0.064 z m 18.339773,-1.47717 c 0.834847,-0.5191 1.942629,-1.62689 2.461737,-2.46174 0.883205,-1.4204 0.95259,-2.01866 1.080153,-9.3134 0.154574,-8.83937 -0.114896,-10.35867 -2.098434,-11.83117 -1.984558,-1.47326 -4.554,-1.91353 -11.167152,-1.91353 -6.860962,0 -8.942846,0.39855 -11.018316,2.10932 -2.037426,1.67942 -2.367056,3.29227 -2.275279,11.13269 0.10403,8.89155 0.828021,10.85221 4.677518,12.66804 1.45483,0.68625 2.502902,0.76163 9.231515,0.66389 7.104933,-0.10317 7.687426,-0.17063 9.108258,-1.0541 z m 15.587868,1.28201 c -4.108384,-2.02467 -4.884877,-4.28229 -4.984821,-14.49316 -0.06658,-6.80249 -0.02001,-7.2745 0.885576,-8.97568 0.693589,-1.30291 1.517009,-2.09094 3.001035,-2.87202 2.009515,-1.05765 2.188274,-1.07643 10.250971,-1.07643 7.651038,0 8.330848,0.0617 10.055638,0.91182 1.15702,0.5703 2.28297,1.56915 3.00628,2.66688 l 1.15643,1.75507 -0.24111,8.61608 c -0.26672,9.53175 -0.32787,10.45188 -0.68015,10.23417 -0.13336,-0.0823 -0.63074,0.37531 -1.10529,1.01717 -0.47454,0.64185 -1.66998,1.55775 -2.65652,2.03533 -1.63552,0.79174 -2.47881,0.8675 -9.562244,0.85899 -6.33903,-0.007 -8.018288,-0.1325 -9.125795,-0.67822 z m 18.862969,-1.3269 c 0.79288,-0.54381 1.88653,-1.63806 2.43033,-2.43167 0.96852,-1.41345 0.98873,-1.62125 0.98873,-10.16473 v -8.72178 l -1.23087,-1.29443 c -2.32478,-2.44484 -3.02288,-2.62357 -10.891492,-2.78834 -7.936928,-0.16619 -9.858717,0.13481 -11.916714,1.86652 -2.17491,1.83006 -2.425589,2.97915 -2.415592,11.073 0.0098,7.90929 0.36687,9.54425 2.501172,11.4514 2.359317,2.10819 2.913915,2.21166 11.265923,2.10176 7.513693,-0.0988 7.884603,-0.14261 9.268513,-1.09173 z m 12.24029,1.19387 c -0.24154,-0.45132 -0.34685,-0.82058 -0.23402,-0.82058 0.11283,0 0.40277,0.36926 0.64431,0.82058 0.24154,0.45132 0.34684,0.82058 0.23402,0.82058 -0.11283,0 -0.40277,-0.36926 -0.64431,-0.82058 z m 3.89775,0.3194 c -2.14083,-0.75903 -3.56388,-2.03066 -4.44742,-3.9742 -0.75364,-1.65781 -0.87549,-2.85434 -1.01447,-9.96204 -0.15357,-7.85341 -0.13129,-8.12536 0.80125,-9.78461 0.58365,-1.03845 1.68383,-2.1327 2.80993,-2.79475 1.84368,-1.08393 1.88343,-1.08806 10.46679,-1.08806 7.68384,0 8.77146,0.0842 10.0521,0.77873 1.63226,0.88517 2.6682,1.96091 3.58314,3.72082 0.53133,1.02204 0.59943,2.55321 0.42463,9.54823 -0.20749,8.30328 -0.21211,8.33732 -1.38997,10.239 -0.76076,1.22829 -1.82601,2.24828 -2.99005,2.86305 -1.71331,0.90486 -2.20884,0.9533 -9.43666,0.92262 -4.25369,-0.0181 -8.17292,-0.22545 -8.85927,-0.46879 z m 16.89668,-0.86348 c 1.87412,-0.69133 3.35784,-2.11952 4.25508,-4.0958 0.67536,-1.48757 0.78193,-2.73632 0.78972,-9.2541 0.008,-6.99523 -0.0551,-7.64861 -0.8871,-9.12891 -0.59474,-1.0582 -1.52612,-1.90488 -2.76945,-2.5176 -1.68383,-0.8298 -2.59124,-0.93627 -8.96982,-1.05242 -7.92899,-0.14434 -10.17484,0.2816 -12.09478,2.29422 -1.72652,1.80986 -1.93866,2.98501 -1.93866,10.739 0,7.18875 0.0191,7.34813 1.13439,9.48312 0.86758,1.66073 1.56722,2.3928 2.9746,3.11247 1.71691,0.87794 2.32129,0.93967 9.02028,0.92133 4.43154,-0.0116 7.67988,-0.20403 8.48574,-0.50131 z m 17.15735,0.79484 c -0.67697,-0.29575 -1.8053,-1.0219 -2.50737,-1.61367 -0.70207,-0.59177 -1.40418,-0.94825 -1.56026,-0.79217 -0.15609,0.15607 -0.15032,-0.064 0.013,-0.48904 0.16906,-0.44058 0.13437,-0.67365 -0.0809,-0.54217 -0.5817,0.35543 -0.77366,-2.44151 -0.781,-11.37898 l -0.007,-8.2058 1.14949,-1.50251 c 1.93637,-2.53109 3.56738,-2.96172 11.86373,-3.13237 8.84577,-0.18193 10.90425,0.25132 13.18421,2.77496 0.81197,0.89874 1.59457,2.10533 1.73913,2.68131 0.50361,2.00651 -0.0952,16.30308 -0.748,17.85918 -0.84163,2.00617 -2.9297,3.98052 -4.74215,4.48391 -2.2797,0.63313 -16.00279,0.52142 -17.52293,-0.14261 z m 17.06178,-0.66389 c 1.89744,-0.5271 4.22797,-2.86813 4.80128,-4.82297 0.62139,-2.11876 0.66156,-15.83627 0.0498,-17.02564 -1.83065,-3.55943 -4.34379,-4.40708 -13.06629,-4.40708 -6.81447,0 -8.38463,0.25766 -10.53058,1.72809 -2.4457,1.67582 -2.70547,2.88095 -2.55373,11.84729 l 0.13481,7.96482 1.16717,1.72009 c 2.02769,2.98825 3.45203,3.4082 11.5518,3.40591 3.83621,-10e-4 7.63677,-0.1858 8.44569,-0.41051 z m -52.55182,-30.79309 c 0,-0.23898 0.18463,-0.3204 0.41029,-0.18093 0.22565,0.13946 0.41028,0.33499 0.41028,0.4345 0,0.0995 -0.18463,0.18093 -0.41028,0.18093 -0.22566,0 -0.41029,-0.19553 -0.41029,-0.4345 z m -48.00389,-0.6644 c 0,-0.22829 0.415419,-0.7668 0.923152,-1.19667 l 0.923151,-0.7816 -0.816206,1.02572 c -0.448913,0.56415 -0.864332,1.10266 -0.923151,1.19668 -0.05882,0.094 -0.106949,-0.0158 -0.106949,-0.24413 z m 15.232781,-1.5409 c -2.109383,-0.68866 -3.958042,-2.32856 -4.886965,-4.33512 -0.54412,-1.17535 -0.668354,-3.00574 -0.684403,-10.08367 l -0.01961,-8.64766 1.072422,-1.40638 c 0.589831,-0.77351 1.902466,-1.82092 2.916966,-2.32759 1.724041,-0.86103 2.371852,-0.92121 9.916002,-0.92121 8.609677,0 10.023307,0.25439 12.078807,2.17361 1.95966,1.82972 2.12064,2.6386 2.12064,10.65567 0,10.22686 -0.70698,12.40713 -4.71833,14.55113 -1.74993,0.93531 -15.186674,1.19295 -17.795532,0.34122 z m 17.385239,-1.12405 c 1.67066,-0.91125 2.9125,-2.30646 3.67303,-4.12664 0.49709,-1.18971 0.63501,-3.20268 0.63501,-9.26782 0,-7.35742 -0.0465,-7.81674 -0.92315,-9.11156 -0.50773,-0.74996 -1.73687,-1.79272 -2.73141,-2.31727 -1.71044,-0.90211 -2.23413,-0.95371 -9.679848,-0.95371 -7.408526,0 -7.977957,0.0554 -9.679846,0.9411 -1.28412,0.66832 -2.080671,1.47107 -2.748055,2.76946 -0.895016,1.74123 -0.934114,2.19001 -0.820579,9.41871 0.10585,6.73971 0.21433,7.77167 0.967946,9.20825 1.889947,3.60272 4.050372,4.29374 13.101113,4.19044 5.572749,-0.0636 7.222369,-0.21457 8.205789,-0.75096 z m 19.07844,1.34013 c -2.78701,-0.25411 -4.53508,-1.14985 -6.08211,-3.11658 -0.43111,-0.54808 -0.85451,-0.92584 -0.94088,-0.83946 -0.20897,0.20896 -0.29157,-1.37953 -0.56432,-10.8524 l -0.23036,-8.00065 1.14536,-1.64116 c 0.63216,-0.9058 1.96295,-2.05479 2.97006,-2.5643 1.69756,-0.85883 2.35468,-0.923 9.4307,-0.92087 4.30443,0.001 8.31838,0.19991 9.24715,0.45756 2.36288,0.65548 4.61411,2.58453 5.16604,4.42673 0.7039,2.3494 0.30766,16.63479 -0.51332,18.50634 -0.94208,2.14763 -3.21696,3.94055 -5.66629,4.46584 -2.1719,0.46579 -9.27857,0.50597 -13.96203,0.0789 z m 14.24708,-1.06817 c 2.41336,-0.71669 4.34018,-2.63076 5.04822,-5.01481 0.29039,-0.97777 0.41021,-4.36049 0.32623,-9.20965 -0.15127,-8.73418 -0.30783,-9.20452 -3.62859,-10.90135 -1.68686,-0.86194 -2.32559,-0.92315 -9.63342,-0.92315 -7.30782,0 -7.94656,0.0612 -9.63342,0.92315 -3.29237,1.68232 -3.47729,2.21706 -3.62782,10.49099 -0.17429,9.57914 -0.0358,10.39021 2.14738,12.57335 1.05057,1.05058 2.38772,1.91661 3.35341,2.17192 2.60575,0.68888 13.20835,0.61406 15.64801,-0.11045 z m 19.60185,1.19545 c -0.45132,-0.10848 -1.24066,-0.28706 -1.75408,-0.39683 -0.51343,-0.10977 -1.66631,-0.86163 -2.56197,-1.67081 -2.44246,-2.20661 -2.86416,-4.12778 -2.86339,-13.04512 8.2e-4,-8.53268 0.25398,-9.43948 3.21309,-11.50575 l 1.77771,-1.24133 8.53836,-0.12524 c 7.98947,-0.11718 8.65733,-0.0693 10.38891,0.74462 2.24116,1.05348 3.06359,1.91323 3.79684,3.96921 0.68561,1.92236 0.75955,9.90431 0.14001,15.1053 -0.24194,2.03094 -0.46286,4.00216 -0.49092,4.38049 -0.028,0.37834 -0.16925,0.61482 -0.31375,0.52551 -0.1445,-0.0893 -0.70498,0.31105 -1.24551,0.88968 -1.97939,2.1189 -2.91501,2.33513 -10.62461,2.45546 -3.94903,0.0616 -7.54932,0.0233 -8.00064,-0.0852 z m 14.32333,-1.04021 c 0.8824,-0.23265 2.30705,-0.9877 3.16587,-1.67787 2.33052,-1.87285 2.75892,-3.70478 2.81056,-12.01858 0.0409,-6.5761 -0.013,-7.08648 -0.91832,-8.79959 -0.6628,-1.25338 -1.51696,-2.11221 -2.74832,-2.76337 -1.68544,-0.89128 -2.23243,-0.94479 -9.65821,-0.94479 -7.44571,0 -7.96941,0.0516 -9.67984,0.95371 -0.99454,0.52455 -2.22368,1.56731 -2.73142,2.31727 -0.87844,1.29753 -0.92272,1.74308 -0.91413,9.20096 0.007,6.71522 0.11689,8.07481 0.76219,9.49553 0.8248,1.81577 2.88624,3.77315 4.28647,4.07007 0.49034,0.10397 1.26078,0.26166 1.7121,0.3504 1.79677,0.35329 12.40768,0.21317 13.91305,-0.18374 z m -119.982646,-0.0482 c -1.003629,-0.50774 -2.427467,-1.72218 -3.164114,-2.69878 -1.198165,-1.58847 -1.333664,-2.04255 -1.285535,-4.30804 l 0.05375,-2.53242 0.298696,2.32487 c 0.320095,2.49143 1.62148,5.13219 2.438202,4.94761 0.27435,-0.062 0.397134,0.0518 0.272862,0.25288 -0.315746,0.51088 0.929391,1.50221 2.58536,2.05835 0.828006,0.27808 4.234437,0.46839 8.38396,0.46839 8.313406,0 9.796971,-0.45568 11.808106,-3.62692 1.135738,-1.79087 1.693398,-4.94192 0.774046,-4.37373 -0.485283,0.29992 -0.485283,-0.10156 0,-1.23087 0.245599,-0.57153 0.370119,-0.63379 0.41029,-0.20514 0.04096,0.43707 0.169397,0.37762 0.443176,-0.20515 0.26821,-0.57091 0.339495,0.0709 0.234292,2.10927 -0.08317,1.61141 -0.363943,3.18077 -0.62395,3.48746 -0.260006,0.30669 -0.840708,1.04923 -1.29045,1.65009 -0.449741,0.60085 -1.613806,1.47785 -2.586811,1.94887 -1.598032,0.7736 -2.501967,0.85641 -9.348122,0.85641 -7.045542,0 -7.707476,-0.065 -9.4038,-0.92315 z m 1.469393,-4.78264 c -0.126425,-0.20462 0.139574,-0.2754 0.591223,-0.15729 0.958029,0.25052 1.079122,0.52931 0.229935,0.52931 -0.32518,0 -0.694689,-0.16741 -0.821158,-0.37202 z m -5.072282,-3.52573 c 0.0087,-0.67697 0.100273,-0.90425 0.204346,-0.50505 0.10403,0.3992 0.09724,0.95309 -0.01517,1.23087 -0.11241,0.27778 -0.197498,-0.0488 -0.189146,-0.72582 z m 1.35603,-16.20644 c 0.408447,-0.45131 0.834927,-0.82057 0.947756,-0.82057 0.112844,0 -0.129026,0.36926 -0.537459,0.82057 -0.408448,0.45132 -0.834927,0.82058 -0.947756,0.82058 -0.112844,0 0.129026,-0.36926 0.537459,-0.82058 z m 22.565931,-0.21786 c -0.676978,-0.55491 -1.032265,-1.00984 -0.789527,-1.01096 0.242738,-10e-4 0.874972,0.45953 1.404961,1.02368 1.215665,1.29402 0.972617,1.28899 -0.615434,-0.0127 z M 54.337737,93.89779 c -3.856086,-1.037952 -6.666671,-2.653906 -9.519793,-5.473416 -3.229667,-3.19164 -4.782891,-5.704635 -5.827771,-9.428906 -0.681757,-2.429952 -0.756153,-4.212731 -0.703618,-16.85967 0.05693,-13.697148 0.140585,-15.386161 0.743742,-15.013372 0.155929,0.09637 0.70252,-0.707332 1.21465,-1.786021 1.994659,-4.201321 5.920315,-7.955169 10.724518,-10.255155 l 3.077176,-1.473179 58.055979,-0.115011 58.05599,-0.115011 2.80128,0.894672 c 7.34636,2.346323 13.28158,8.902766 14.60164,16.12997 0.70799,3.87617 0.582,24.970621 -0.16629,27.84353 -2.0461,7.85546 -8.94506,14.465298 -16.57463,15.880014 -1.40733,0.260953 -22.5682,0.399985 -58.26112,0.382791 -47.143129,-0.02271 -56.396085,-0.119851 -58.221753,-0.61128 z m 94.020073,-0.383983 c -0.30933,-0.806088 0.98948,-1.297051 1.62161,-0.612988 0.38349,0.415001 0.33467,0.47216 -0.23273,0.272502 -0.45617,-0.16052 -0.718,-0.04875 -0.718,0.3065 0,0.78338 2.04177,0.612263 2.08354,-0.174619 0.0224,-0.420883 0.0981,-0.453307 0.23963,-0.102571 0.31515,0.78102 0.95914,0.611561 0.95914,-0.252385 0,-0.420888 0.38266,-1.251723 0.85036,-1.846303 1.12669,-1.43234 3.12899,-1.46475 4.62864,-0.07492 0.5971,0.553374 1.08564,0.830319 1.08564,0.615436 0,-0.214886 0.27695,-0.390699 0.61543,-0.390699 0.33849,0 0.61543,-0.167345 0.61543,-0.371878 0,-0.204533 -0.37533,-0.273728 -0.83406,-0.153765 -1.80258,0.471382 -3.25913,-2.393524 -1.8229,-3.585483 0.87282,-0.724373 1.26044,-0.177793 0.44921,0.633433 -0.36535,0.365353 -0.66427,0.813113 -0.66427,0.995024 0,0.705612 1.3888,1.431609 2.51303,1.313686 1.35733,-0.142377 1.65407,0.851833 0.46157,1.546409 -0.59106,0.344255 -0.60557,0.420407 -0.0821,0.430677 0.65613,0.01286 1.62065,-0.743642 1.62065,-1.271145 0,-0.850777 -1.40147,-1.616137 -2.5125,-1.372113 -1.00471,0.220671 -1.18012,0.132393 -1.18012,-0.593983 0,-0.476752 0.26586,-0.85318 0.60257,-0.85318 0.36904,0 0.51034,-0.240298 0.36459,-0.620086 -0.17026,-0.443707 -0.0498,-0.547926 0.42317,-0.366394 0.82365,0.316059 0.82177,0.356723 -0.0569,1.236504 -0.68393,0.684808 -0.67276,0.707115 0.23559,0.470045 0.64418,-0.168124 1.20999,0.0075 1.74373,0.541249 1.47815,1.478148 0.70858,3.272233 -1.45727,3.39729 -0.7226,0.04173 -1.03442,0.295287 -1.03462,0.841337 -2.7e-4,0.742712 0.27226,0.768543 5.47553,0.519 3.65477,-0.17528 6.3496,-0.533548 8.10322,-1.077294 3.07487,-0.953422 7.47734,-3.576173 7.08055,-4.218195 -0.15341,-0.248221 -0.0805,-0.321655 0.16732,-0.168504 0.99421,0.61446 5.01325,-4.657455 6.36595,-8.350454 1.19304,-3.257122 1.47567,-6.948682 1.35069,-17.642451 -0.0964,-8.245341 -0.26758,-10.978381 -0.8079,-12.897386 -0.81527,-2.895471 -2.77222,-6.62795 -3.40891,-6.50177 -0.24866,0.04927 -0.55983,-0.191097 -0.69147,-0.534179 -0.16149,-0.420845 -0.074,-0.52447 0.26879,-0.318548 0.34067,0.204606 0.3238,0.07788 -0.0512,-0.384463 -0.30764,-0.379334 -0.75157,-0.570879 -0.98654,-0.425656 -0.23496,0.145208 -0.30866,0.07224 -0.1638,-0.162157 0.62057,-1.004105 -6.10537,-5.861364 -7.18899,-5.191642 -0.27169,0.167907 -0.34552,0.09941 -0.18058,-0.167445 0.89544,-1.448848 -1.42625,-1.510529 -60.66996,-1.611857 l -57.850844,-0.09897 -2.66688,0.952235 c -1.505139,0.537416 -2.619372,1.167982 -2.557821,1.447519 0.05996,0.272414 -0.124692,0.464667 -0.410283,0.427216 -1.192847,-0.156392 -1.712766,0.105764 -3.108717,1.567716 -0.808038,0.846226 -1.225747,1.215489 -0.928251,0.82058 0.911418,-1.20981 0.268369,-0.799817 -1.222814,0.779632 -0.777652,0.823686 -1.136975,1.357316 -0.798487,1.18584 0.338487,-0.17149 0.07788,0.139429 -0.579042,0.691048 -0.793229,0.665965 -1.082042,1.184785 -0.859764,1.54444 0.213637,0.345654 0.17503,0.442893 -0.106631,0.268772 -0.484967,-0.299721 -2.519244,3.514103 -2.73067,5.1194 -0.07065,0.536708 -0.291399,1.345093 -0.490487,1.796409 -0.199087,0.451317 -0.361966,6.451806 -0.361966,13.334412 0,14.123474 0.160784,15.131927 3.150142,19.75704 3.609838,5.585114 8.551072,8.809788 14.921981,9.738142 1.3433,0.195743 22.515112,0.378409 47.048474,0.405927 39.383,0.04417 44.57862,-0.02163 44.37128,-0.561944 z M 108.84848,88.783719 C 97.293943,86.339504 88.432566,78.63107 84.78563,67.851649 c -0.546145,-1.614267 -0.992991,-3.378921 -0.992991,-3.921453 0,-0.986338 4.1e-4,-0.986422 4.873237,-0.986422 3.411031,0 4.993649,0.153883 5.274547,0.512862 0.220721,0.282074 0.620537,1.410868 0.888482,2.508432 1.392509,5.704043 5.900105,11.198434 11.352215,13.837403 5.66844,2.743684 10.92621,3.049961 16.5153,0.962053 6.75318,-2.522775 11.12441,-7.329478 13.40784,-14.743579 l 0.88454,-2.872027 3.97564,-0.11751 c 3.35394,-0.09913 4.01545,-0.01373 4.23024,0.545982 0.38098,0.992804 -1.77515,6.973177 -3.69151,10.239063 -2.49986,4.26027 -7.88891,9.469823 -11.96324,11.564781 -5.13386,2.639752 -8.26152,3.454221 -13.94984,3.632651 -2.70792,0.08494 -5.74164,-0.01862 -6.74161,-0.23016 z m 14.00091,-1.655132 c 7.78511,-2.315065 13.75292,-6.97398 17.80904,-13.903045 1.97829,-3.379517 3.65623,-7.913297 3.28587,-8.878427 -0.18734,-0.488197 -0.85471,-0.593461 -3.15914,-0.498285 l -2.92163,0.120675 -1.13965,3.400763 c -3.45696,10.315685 -12.71374,16.460943 -23.34452,15.497607 -8.78825,-0.796369 -16.754968,-7.243127 -19.085349,-15.444069 -0.411619,-1.448548 -0.815689,-2.869497 -0.897932,-3.157667 -0.192335,-0.673922 -7.077847,-0.625698 -7.938469,0.0556 -0.455222,0.36037 -0.520583,0.350106 -0.283503,-0.04452 0.169465,-0.282074 0.112598,-0.512863 -0.126382,-0.512863 -0.599812,0 -0.563998,0.248904 0.5057,3.51466 1.470437,4.489196 3.806086,8.256286 7.261299,11.711497 4.556977,4.556977 8.889066,7.097082 14.162526,8.304144 1.57783,0.361156 3.23804,0.744853 3.68936,0.85266 1.91749,0.45803 9.28983,-0.158447 12.18279,-1.018726 z M 77.228005,56.082003 c -1.40658,-0.531073 -3.780259,-2.779391 -4.571221,-4.329798 -0.672908,-1.319013 -0.815578,-2.227627 -0.692312,-4.40912 0.177583,-3.142788 1.271104,-4.981271 4.06097,-6.827514 2.300844,-1.522636 6.136913,-1.510789 8.761028,0.02702 3.110292,1.822749 4.302446,4.667216 3.98547,9.509275 -0.103336,1.578466 -2.472176,4.590913 -4.309489,5.480354 -1.700206,0.823051 -5.70462,1.127353 -7.234446,0.549755 z m 7.657751,-2.007041 c 2.937677,-2.377661 4.000299,-6.488635 2.451419,-9.483845 -0.920113,-1.779302 -3.334199,-3.652592 -5.366521,-4.164347 -6.028011,-1.517869 -11.317571,5.379099 -8.444544,11.010687 1.431681,2.806337 3.999319,4.173637 7.490773,3.98897 1.89206,-0.100129 2.649775,-0.36477 3.868873,-1.351465 z m 60.610214,1.742126 c -4.35905,-1.984602 -6.12303,-7.490718 -3.83003,-11.955105 1.4714,-2.864767 4.06721,-4.441471 7.31219,-4.441471 3.16213,0 5.73667,1.24924 7.28861,3.536671 1.05085,1.548846 1.17288,2.073547 1.17288,5.042966 0,2.982741 -0.1127,3.462102 -1.12735,4.792298 -1.9499,2.556449 -3.35217,3.288776 -6.61756,3.455975 -1.93741,0.09926 -3.3528,-0.04623 -4.19874,-0.431334 z m 7.77828,-1.5042 c 2.15476,-1.47646 3.55169,-3.890503 3.54093,-6.119084 -0.0116,-2.432249 -1.1964,-4.982181 -2.92093,-6.287179 -1.44542,-1.093788 -4.38501,-2.070355 -5.33449,-1.772164 -0.30624,0.09623 -1.06919,0.287281 -1.69544,0.424673 -1.87306,0.410976 -4.32134,2.942313 -4.97517,5.143962 -0.87069,2.931968 -0.22299,5.386569 2.01081,7.620366 1.94277,1.942773 2.70062,2.211806 5.82029,2.066164 1.4461,-0.06748 2.58445,-0.412392 3.554,-1.076738 z m 2.31907,37.146017 c 1.27435,0 1.49114,0.16166 1.92572,1.436013 0.43597,1.278469 0.49224,1.320075 0.51286,0.379237 0.0329,-1.504686 -1.67639,-3.018254 -3.02611,-2.679495 -1.28712,0.323047 -2.40206,1.926799 -2.02416,2.911593 0.22344,0.58227 0.36821,0.45087 0.72732,-0.660196 0.39639,-1.226388 0.61478,-1.387152 1.88437,-1.387152 z m 0.58187,2.417842 c 0.91872,-0.352545 0.80619,-1.697221 -0.16791,-2.006386 -1.02814,-0.326322 -1.64482,0.04125 -1.64482,0.980391 0,1.193804 0.55573,1.50835 1.81273,1.025995 z M 38.941062,48.09642 c -0.130904,-0.32729 -0.228201,-0.230079 -0.247894,0.247895 -0.01777,0.432504 0.07918,0.674836 0.215501,0.538499 0.136394,-0.136395 0.150915,-0.490212 0.03236,-0.786394 z m -14.19773,-1.803561 c 0.01965,-0.47796 0.116889,-0.575184 0.24788,-0.24788 0.118479,0.296182 0.103886,0.650057 -0.03237,0.786379 -0.136394,0.136395 -0.233301,-0.105908 -0.215486,-0.538499 z m 176.834808,0 c 0.0197,-0.47796 0.11689,-0.575184 0.24788,-0.24788 0.11848,0.296182 0.10389,0.650057 -0.0324,0.786379 -0.1364,0.136395 -0.23332,-0.105908 -0.2155,-0.538499 z M 38.725316,45.916762 c -0.0011,-0.225658 0.246753,-1.056496 0.550896,-1.8463 0.304158,-0.789818 0.558727,-1.159067 0.565721,-0.820579 0.0072,0.338487 -0.240916,1.169325 -0.550897,1.8463 -0.30998,0.676974 -0.56455,1.046237 -0.56572,0.820579 z M 186.80771,45.061997 c 0.0197,-0.477974 0.11689,-0.575184 0.24789,-0.247894 0.11847,0.296181 0.10388,0.650057 -0.0324,0.786394 -0.13639,0.136394 -0.2333,-0.106053 -0.21549,-0.5385 z M 27.404201,43.539895 c 0.15408,-0.404633 0.383495,-0.632343 0.509819,-0.506019 0.126281,0.126281 2.6e-4,0.457385 -0.280144,0.735708 -0.405211,0.402192 -0.452328,0.35506 -0.229675,-0.229689 z M 186.39743,43.420838 c 0.0197,-0.477974 0.11689,-0.575184 0.24788,-0.247894 0.11848,0.296182 0.10389,0.650057 -0.0324,0.786394 -0.1364,0.136395 -0.2333,-0.106053 -0.2155,-0.5385 z m -1.48527,-3.070284 c -0.14875,-0.24067 -0.18246,-0.525582 -0.0748,-0.633123 0.10749,-0.107498 0.30486,0.08944 0.43848,0.437576 0.27743,0.722979 0.041,0.850155 -0.3636,0.195547 z M 29.429274,39.146985 c 0.350075,-0.676974 0.728816,-1.230876 0.841645,-1.230876 0.112844,0 -0.08135,0.553902 -0.431363,1.230876 -0.350075,0.676975 -0.728816,1.230862 -0.841645,1.230862 -0.112844,0 0.0812,-0.553887 0.431363,-1.230862 z M 196.81327,39.0444 l -0.65068,-1.333447 0.83616,1.025721 c 0.80504,0.987576 1.06781,1.641159 0.65979,1.641159 -0.10706,0 -0.48741,-0.60005 -0.84527,-1.333433 z M 41.491529,38.941815 c 0.69164,-1.338272 1.259788,-2.080208 1.25674,-1.641158 -0.0014,0.225658 -0.380389,0.871857 -0.841834,1.436003 -0.557253,0.681295 -0.696581,0.750185 -0.414906,0.205155 z M 184.0766,38.661382 c -0.17554,-0.297077 -0.58452,-0.955572 -0.90885,-1.463311 -0.32433,-0.507723 -0.48872,-0.92315 -0.3653,-0.92315 0.37332,0 2.0266,2.493338 1.80213,2.717811 -0.11487,0.114867 -0.35245,-0.03424 -0.52798,-0.33135 z M 31.560095,35.426817 c 0.407653,-0.692116 1.098687,-1.569103 1.535612,-1.94887 0.436926,-0.379767 0.174843,0.186517 -0.582408,1.258401 -1.560652,2.209061 -2.061252,2.571692 -0.953204,0.690469 z m 163.164155,0.130182 c -0.45182,-0.620567 -0.98356,-1.405242 -1.18165,-1.743744 -0.29142,-0.497956 -0.24723,-0.523559 0.23146,-0.134083 0.59277,0.482251 2.20716,3.006147 1.92285,3.006147 -0.0831,0 -0.52085,-0.507738 -0.97266,-1.128291 z m -13.56042,-0.615438 c -1.51725,-1.685386 -1.50998,-2.176046 0.0116,-0.740101 0.8237,0.777668 1.49763,1.47003 1.49763,1.538589 0,0.413692 -0.79719,-0.0087 -1.5086,-0.798488 z M 43.994547,35.345197 c 0,-0.0812 0.565692,-0.689501 1.257086,-1.351912 0.691395,-0.662396 1.145124,-0.92773 1.008296,-0.589619 -0.223202,0.55146 -2.265382,2.301706 -2.265382,1.941531 z M 27.595529,34.223552 c 0,-0.338487 0.178975,-0.892374 0.397727,-1.230876 0.353528,-0.547053 0.397727,-0.547053 0.397727,0 0,0.338502 -0.178975,0.892389 -0.397727,1.230876 -0.353543,0.547053 -0.397727,0.547053 -0.397727,0 z M 198.50961,33.977377 c -0.14602,-0.380518 -0.17317,-0.784169 -0.0604,-0.896998 0.11285,-0.112844 0.32462,0.106197 0.47064,0.486716 0.14601,0.380518 0.17316,0.784169 0.0604,0.896998 -0.11284,0.112843 -0.32461,-0.106198 -0.47063,-0.486716 z m -20.77615,-2.247884 -1.42052,-1.263198 1.32104,0.872002 c 1.17122,0.773115 2.05669,1.654379 1.66228,1.654379 -0.0783,0 -0.78152,-0.568437 -1.5628,-1.263183 z m -129.86465,0.07036 c 0.154369,-0.249773 0.869011,-0.738713 1.588089,-1.08652 1.213596,-0.586989 1.248532,-0.584619 0.486845,0.03294 -1.246177,1.010448 -2.415141,1.603982 -2.074934,1.053534 z M 29.455642,30.000414 c 0.15408,-0.404633 0.383495,-0.632343 0.509819,-0.506019 0.126281,0.126281 2.6e-4,0.457385 -0.280129,0.735694 -0.405211,0.402206 -0.452343,0.355074 -0.22969,-0.229675 z m 6.425915,-0.115155 c 0.389534,-0.407827 0.820767,-0.628991 0.958289,-0.491455 0.13755,0.137551 -0.181171,0.471212 -0.708228,0.741502 -0.916128,0.46984 -0.927123,0.45883 -0.250061,-0.250047 z M 173.23577,29.471971 c -1.24112,-0.532012 -1.97965,-0.970585 -1.64116,-0.974616 0.33849,-0.0043 1.53859,0.437316 2.66688,0.980757 2.62437,1.264035 1.92775,1.25986 -1.02572,-0.0058 z m 16.91633,0.422463 c -0.49977,-0.350061 -1.1179,-1.042424 -1.37361,-1.538574 -0.33485,-0.649696 -0.0487,-0.506496 1.02254,0.511813 1.37573,1.307699 1.66936,1.66325 1.37363,1.66325 -0.0626,0 -0.52276,-0.286414 -1.02256,-0.636489 z m 6.26503,-0.594387 c -0.35007,-0.676975 -0.54419,-1.230862 -0.43136,-1.230862 0.11284,0 0.49157,0.553887 0.84166,1.230862 0.35007,0.676975 0.54418,1.230876 0.43135,1.230876 -0.11285,0 -0.49157,-0.553901 -0.84165,-1.230876 z M 53.020921,29.138801 c 0,-0.08872 0.28653,-0.271201 0.636735,-0.405587 0.365131,-0.140152 0.529816,-0.07138 0.386081,0.161246 -0.240945,0.389852 -1.022816,0.576644 -1.022816,0.244341 z M 30.646684,27.68491 c 0.342677,-0.662671 0.809309,-1.319966 1.036961,-1.460667 0.227653,-0.140729 0.02615,0.401483 -0.447892,1.204855 -1.039158,1.761241 -1.462661,1.945157 -0.589069,0.255812 z m 6.988369,0.384275 c 0.408448,-0.451331 0.834942,-0.820579 0.947771,-0.820579 0.112843,0 -0.129026,0.369248 -0.537474,0.820579 -0.408433,0.451317 -0.834927,0.82058 -0.947756,0.82058 -0.112843,0 0.129026,-0.369263 0.537459,-0.82058 z M 194.33976,25.953924 c -0.61099,-0.980381 -1.931,-2.751808 -2.93337,-3.936521 -1.00236,-1.184713 -1.69008,-2.154012 -1.52828,-2.154012 0.35291,0 0.53481,0.215775 3.60278,4.27394 1.31864,1.74422 2.30127,3.267565 2.18363,3.385206 -0.11761,0.117611 -0.71378,-0.588246 -1.32476,-1.568613 z M 39.105271,26.735738 c 0.09406,-0.05635 0.724843,-0.564145 1.401817,-1.128291 l 1.230862,-1.025735 -0.99467,1.128305 c -0.547068,0.620553 -1.177879,1.128292 -1.401818,1.128292 -0.223939,0 -0.330223,-0.04624 -0.236191,-0.102585 z m 146.818419,-1.025721 -0.99467,-1.128305 1.12831,0.99467 c 0.62055,0.547082 1.12829,1.054806 1.12829,1.128306 0,0.32177 -0.33226,0.05996 -1.26193,-0.994671 z M 41.943106,24.686999 c 0,-0.32427 4.576753,-3.255646 4.774425,-3.057974 0.101284,0.101284 -0.439787,0.552182 -1.202297,1.002068 -0.762511,0.4499 -1.878188,1.140226 -2.479265,1.534066 -0.601076,0.39384 -1.092863,0.628673 -1.092863,0.52184 z M 182.15511,23.273232 c -1.29999,-0.81743 -2.28667,-1.563209 -2.19259,-1.657269 0.17062,-0.170624 4.76136,2.744844 4.76136,3.023847 0,0.238994 -0.0998,0.185866 -2.56877,-1.366578 z M 32.916732,24.221667 c 0,-0.08525 0.3231,-0.408303 0.718009,-0.718009 0.650736,-0.510353 0.665257,-0.495832 0.154904,0.154904 -0.535986,0.683447 -0.872913,0.900783 -0.872913,0.563105 z m 3.721975,-4.27339 c 0.769185,-0.916186 1.461461,-1.602856 1.538385,-1.525917 0.308926,0.308925 -0.779978,1.778435 -1.825378,2.463414 -1.035141,0.678246 -1.015419,0.613805 0.286993,-0.937497 z m 140.289673,0.325396 c -0.36979,-0.238979 -0.42039,-0.400226 -0.12671,-0.403997 0.26874,-0.0029 0.60275,0.178339 0.74221,0.403997 0.31482,0.509386 0.17279,0.509386 -0.61543,0 z m 11.76163,-1.094105 c -0.15044,-0.150439 -0.27353,-0.464306 -0.27353,-0.697492 0,-0.257084 0.19111,-0.232868 0.48552,0.06155 0.26702,0.267024 0.39011,0.580906 0.27352,0.697492 -0.1166,0.1166 -0.33507,0.08886 -0.48551,-0.06155 z m -3.36744,-3.035883 c -0.14867,-0.240569 -1.01812,-0.979095 -1.93208,-1.641159 -2.1872,-1.584404 -1.5852,-1.557515 0.72567,0.03236 1.88612,1.297687 2.57637,2.046139 1.88701,2.046139 -0.22565,0 -0.53192,-0.196819 -0.6806,-0.437388 z M 41.122527,15.555353 c 0.280909,-0.338488 0.685976,-0.615438 0.900119,-0.615438 0.214142,0 0.11241,0.27695 -0.226078,0.615438 -0.338487,0.338487 -0.743539,0.615423 -0.900119,0.615423 -0.156579,0 -0.0549,-0.276936 0.226078,-0.615423 z m 2.506615,-1.617666 c 0.633037,-0.633036 3.366871,-2.287416 3.522584,-2.131703 0.225903,0.225904 -2.770621,2.313351 -3.320795,2.313351 -0.210891,0 -0.301686,-0.08178 -0.201789,-0.181648 z M 175.69751,10.016438 c -0.33849,-0.2187524 -0.4308,-0.3977274 -0.20514,-0.3977274 0.22565,0 0.68723,0.178975 1.02572,0.3977274 0.33848,0.218752 0.4308,0.397727 0.20514,0.397727 -0.22566,0 -0.68724,-0.178975 -1.02572,-0.397727 z m -2.05144,-0.8205794 c -0.33849,-0.218752 -0.43082,-0.397727 -0.20516,-0.397727 0.22567,0 0.68725,0.178975 1.02573,0.397727 0.33849,0.218751 0.4308,0.397726 0.20515,0.397726 -0.22566,0 -0.68724,-0.178975 -1.02572,-0.397726 z"
       id="path1" /><path
       style="fill:#f9f9f9;stroke:#b3b3b3"
       d="m 164.67816,94.221988 c 0,0 18.50789,-0.420634 22.08328,-17.035672 3.57539,-16.615038 0,-27.551519 0,-27.551519 0,0 -2.10317,-14.722185 -16.82535,-15.353136 C 155.2139,33.65071 54.892721,33.65071 54.892721,33.65071 c 0,0 -12.198383,3.365071 -16.825355,16.404721 -4.626973,13.03965 0.420634,29.654688 0.420634,29.654688 0,0 9.043628,15.14282 19.138841,14.301552 10.095213,-0.841268 107.051319,0.210317 107.051319,0.210317 z"
       id="path2" /><text
       xml:space="preserve"
       style="font-size:38.2029px;font-family:Centaur;-inkscape-font-specification:Centaur;fill:#1a1a1a;stroke:#000000;stroke-width:3.18358"
       x="49.890255"
       y="74.25338"
       id="text2"><tspan
         sodipodi:role="line"
         id="tspan2"
         x="49.890255"
         y="74.25338"
         style="fill:#000000;stroke:#000000;stroke-width:3.18358">10:10:10</tspan></text></g></svg>
